# Right circular cylinder with radius 2, height 4, and 5 vertices
v 0.618 0 1.902
v 0.618 4 1.902
vn 0.618 0 1.902
vn 0.618 0 1.902
v -1.618 0 1.176
v -1.618 4 1.176
vn -1.618 0 1.176
vn -1.618 0 1.176
v -1.618 0 -1.176
v -1.618 4 -1.176
vn -1.618 0 -1.176
vn -1.618 0 -1.176
v 0.618 0 -1.902
v 0.618 4 -1.902
vn 0.618 0 -1.902
vn 0.618 0 -1.902
v 2 0 0
v 2 4 0
vn 2 0 0
vn 2 0 0
f -10//-10 -9//-9 -7//-7 -8//-8
f -8//-8 -7//-7 -5//-5 -6//-6
f -6//-6 -5//-5 -3//-3 -4//-4
f -4//-4 -3//-3 -1//-1 -2//-2
f -2//-2 -1//-1 -9//-9 -10//-10
vn 0 1 0
vn 0 -1 0
f -1//-2 -3//-2 -5//-2 -7//-2 -9//-2 
f -10//-1 -8//-1 -6//-1 -4//-1 -2//-1 
