# Right circular cylinder with radius 2, height 4, and 20 vertices
v 1.902 0 0.618
v 1.902 4 0.618
vn 1.902 0 0.618
vn 1.902 0 0.618
v 1.618 0 1.176
v 1.618 4 1.176
vn 1.618 0 1.176
vn 1.618 0 1.176
v 1.176 0 1.618
v 1.176 4 1.618
vn 1.176 0 1.618
vn 1.176 0 1.618
v 0.618 0 1.902
v 0.618 4 1.902
vn 0.618 0 1.902
vn 0.618 0 1.902
v 0 0 2
v 0 4 2
vn 0 0 2
vn 0 0 2
v -0.618 0 1.902
v -0.618 4 1.902
vn -0.618 0 1.902
vn -0.618 0 1.902
v -1.176 0 1.618
v -1.176 4 1.618
vn -1.176 0 1.618
vn -1.176 0 1.618
v -1.618 0 1.176
v -1.618 4 1.176
vn -1.618 0 1.176
vn -1.618 0 1.176
v -1.902 0 0.618
v -1.902 4 0.618
vn -1.902 0 0.618
vn -1.902 0 0.618
v -2 0 0
v -2 4 0
vn -2 0 0
vn -2 0 0
v -1.902 0 -0.618
v -1.902 4 -0.618
vn -1.902 0 -0.618
vn -1.902 0 -0.618
v -1.618 0 -1.176
v -1.618 4 -1.176
vn -1.618 0 -1.176
vn -1.618 0 -1.176
v -1.176 0 -1.618
v -1.176 4 -1.618
vn -1.176 0 -1.618
vn -1.176 0 -1.618
v -0.618 0 -1.902
v -0.618 4 -1.902
vn -0.618 0 -1.902
vn -0.618 0 -1.902
v 0 0 -2
v 0 4 -2
vn 0 0 -2
vn 0 0 -2
v 0.618 0 -1.902
v 0.618 4 -1.902
vn 0.618 0 -1.902
vn 0.618 0 -1.902
v 1.176 0 -1.618
v 1.176 4 -1.618
vn 1.176 0 -1.618
vn 1.176 0 -1.618
v 1.618 0 -1.176
v 1.618 4 -1.176
vn 1.618 0 -1.176
vn 1.618 0 -1.176
v 1.902 0 -0.618
v 1.902 4 -0.618
vn 1.902 0 -0.618
vn 1.902 0 -0.618
v 2 0 0
v 2 4 0
vn 2 0 0
vn 2 0 0
f -40//-40 -39//-39 -37//-37 -38//-38
f -38//-38 -37//-37 -35//-35 -36//-36
f -36//-36 -35//-35 -33//-33 -34//-34
f -34//-34 -33//-33 -31//-31 -32//-32
f -32//-32 -31//-31 -29//-29 -30//-30
f -30//-30 -29//-29 -27//-27 -28//-28
f -28//-28 -27//-27 -25//-25 -26//-26
f -26//-26 -25//-25 -23//-23 -24//-24
f -24//-24 -23//-23 -21//-21 -22//-22
f -22//-22 -21//-21 -19//-19 -20//-20
f -20//-20 -19//-19 -17//-17 -18//-18
f -18//-18 -17//-17 -15//-15 -16//-16
f -16//-16 -15//-15 -13//-13 -14//-14
f -14//-14 -13//-13 -11//-11 -12//-12
f -12//-12 -11//-11 -9//-9 -10//-10
f -10//-10 -9//-9 -7//-7 -8//-8
f -8//-8 -7//-7 -5//-5 -6//-6
f -6//-6 -5//-5 -3//-3 -4//-4
f -4//-4 -3//-3 -1//-1 -2//-2
f -2//-2 -1//-1 -39//-39 -40//-40
vn 0 1 0
vn 0 -1 0
f -1//-2 -3//-2 -5//-2 -7//-2 -9//-2 -11//-2 -13//-2 -15//-2 -17//-2 -19//-2 -21//-2 -23//-2 -25//-2 -27//-2 -29//-2 -31//-2 -33//-2 -35//-2 -37//-2 -39//-2 
f -40//-1 -38//-1 -36//-1 -34//-1 -32//-1 -30//-1 -28//-1 -26//-1 -24//-1 -22//-1 -20//-1 -18//-1 -16//-1 -14//-1 -12//-1 -10//-1 -8//-1 -6//-1 -4//-1 -2//-1 
